<svg width="180" height="42" viewBox="0 0 180 42" fill="none" xmlns="http://www.w3.org/2000/svg">
<path d="M3.24 33V8.52H6.12V20.004H8.424L15.732 8.52H18.936L11.592 20.04C12.792 20.136 13.692 20.484 14.292 21.084C14.892 21.684 15.42 22.536 15.876 23.64L19.296 32.712L16.56 33.576L12.996 24.144C12.708 23.28 12.336 22.776 11.88 22.632C11.664 22.56 11.4 22.524 11.088 22.524H6.12V33H3.24ZM31.6001 8.52L39.8441 33H36.8561L34.4801 25.8H25.1921L22.8161 33H19.8281L28.0721 8.52H31.6001ZM29.8361 11.688L26.0201 23.208H33.6161L29.8361 11.688ZM43.072 33V8.52H46.42L58.192 28.428V8.52H61.072V33H57.724L45.952 13.092V33H43.072ZM67.5408 33V8.52H76.5408C78.1728 8.52 79.5648 9.096 80.7168 10.248C81.8688 11.4 82.4448 12.792 82.4448 14.424C82.4448 15.552 82.1568 16.584 81.5808 17.52C81.0048 18.432 80.2368 19.14 79.2768 19.644C80.5728 20.148 81.6048 20.928 82.3728 21.984C83.1408 23.04 83.5248 24.276 83.5248 25.692C83.5248 27.732 82.8168 29.46 81.4008 30.876C79.9848 32.292 78.2568 33 76.2168 33H67.5408ZM76.1448 20.976H70.4208V30.408H76.1448C77.4168 30.408 78.5088 29.94 79.4208 29.004C80.3328 28.068 80.7888 26.964 80.7888 25.692C80.7888 24.396 80.3328 23.292 79.4208 22.38C78.5088 21.444 77.4168 20.976 76.1448 20.976ZM76.0008 11.112H70.4208V18.384H76.0008C77.0328 18.384 77.9088 18.036 78.6288 17.34C79.3488 16.644 79.7088 15.78 79.7088 14.748C79.7088 13.716 79.3488 12.852 78.6288 12.156C77.9088 11.46 77.0328 11.112 76.0008 11.112ZM96.3931 8.52L104.637 33H101.649L99.2731 25.8H89.9851L87.6091 33H84.6211L92.8651 8.52H96.3931ZM94.6291 11.688L90.8131 23.208H98.4091L94.6291 11.688ZM107.865 33V8.52H111.213L122.985 28.428V8.52H125.865V33H122.517L110.745 13.092V33H107.865Z" fill="#0B7DF7"/>
<path d="M132.783 32L147.5 7.91773L162.217 32H132.783Z" stroke="#0B7DF7" stroke-width="2"/>
<path d="M148.783 32L163.5 7.91773L178.217 32H148.783Z" stroke="#0B7DF7" stroke-width="2"/>
</svg>
